{"title":"BBC Proms 2012 - 75. Vienna Philharmonic","uid":7615988,"size":1303674565,"categoryP":"video","categoryS":"music_videos","magnet":"?xt=urn:btih:3401712cedee69c8086028f860e07341175b3103&amp;dn=BBC+Proms+2012+-+75.+Vienna+Philharmonic&amp;tr=udp%3A%2F%2Ftracker.openbittorrent.com%3A80&amp;tr=udp%3A%2F%2Fopen.demonii.com%3A1337&amp;tr=udp%3A%2F%2Ftracker.coppersurfer.tk%3A6969&amp;tr=udp%3A%2F%2Fexodus.desync.com%3A6969","seeders":3,"leechers":1,"uploader":"deandominic","files":2,"time":1347201871,"description":"BBC Proms 2012 - 75. Vienna Philharmonic\n\nHaydn - Symphony No. 104 in D major, 'London' (30 mins)\nR. Strauss - An Alpine Symphony (50 mins)\n\nThe doyen of European conductors presents favourite repertoire with an ensemble closely associated with the history and traditions of orchestral music.\n\nThe last of Haydn's symphonies, written while he was living in London, proved an instant critical and commercial success. Not so the Strauss, part-elegy for Mahler, part-celebration of the composer himself. Mingling childhood memories of a schoolboy mountaineering expedition with a deeper vision of man's place on earth, the work was received rather sniffily in Britain until dedicated interpreters such as Bernard Haitink arrived to change all that.\n\nVideo\nID                                       : 1\nFormat                                   : AVC\nFormat/Info                              : Advanced Video Codec\nFormat profile                           : &lt;a class=&quot;__cf_email__&quot; href=&quot;/cdn-cgi/l/email-protection&quot; data-cfemail=&quot;602d01090e202c534e50&quot;&gt;[email&amp;#160;protected]&lt;/a&gt;&lt;script cf-hash='f9e31' type=&quot;text/javascript&quot;&gt;\n/* &lt;![CDATA[ */!function(){try{var t=&quot;currentScript&quot;in document?document.currentScript:function(){for(var t=document.getElementsByTagName(&quot;script&quot;),e=t.length;e--;)if(t[e].getAttribute(&quot;cf-hash&quot;))return t[e]}();if(t&amp;&amp;t.previousSibling){var e,r,n,i,c=t.previousSibling,a=c.getAttribute(&quot;data-cfemail&quot;);if(a){for(e=&quot;&quot;,r=parseInt(a.substr(0,2),16),n=2;a.length-n;n+=2)i=parseInt(a.substr(n,2),16)^r,e+=String.fromCharCode(i);e=document.createTextNode(e),c.parentNode.replaceChild(e,c)}}}catch(u){}}();/* ]]&gt; */&lt;/script&gt;\nFormat settings, CABAC                   : Yes\nFormat settings, ReFrames                : 4 frames\nCodec ID                                 : avc1\nCodec ID/Info                            : Advanced Video Coding\nDuration                                 : 1h 55mn\nBit rate mode                            : Constant\nBit rate                                 : 1 404 Kbps\nWidth                                    : 832 pixels\nHeight                                   : 468 pixels\nDisplay aspect ratio                     : 16:9\nFrame rate mode                          : Constant\nFrame rate                               : 25.000 fps\nStandard                                 : PAL\nColor space                              : YUV\nChroma subsampling                       : 4:2:0\nBit depth                                : 8 bits\nScan type                                : Progressive\nBits/(Pixel*Frame)                       : 0.144\nStream size                              : 1.13 GiB (93%)\n\nAudio\nID                                       : 2\nFormat                                   : AAC\nFormat/Info                              : Advanced Audio Codec\nFormat profile                           : HE-AAC / LC\nCodec ID                                 : 40\nDuration                                 : 1h 55mn\nBit rate mode                            : Constant\nBit rate                                 : 96.0 Kbps\nChannel(s)                               : 2 channels\nChannel positions                        : Front: L R\nSampling rate                            : 48.0 KHz / 24.0 KHz\nCompression mode                         : Lossy\nStream size                              : 78.4 MiB (6%)\n","torrent":{"xt":"urn:btih:3401712cedee69c8086028f860e07341175b3103","amp;dn":"BBC+Proms+2012+-+75.+Vienna+Philharmonic","amp;tr":["udp%3A%2F%2Ftracker.openbittorrent.com%3A80","udp%3A%2F%2Fopen.demonii.com%3A1337","udp%3A%2F%2Ftracker.coppersurfer.tk%3A6969","udp%3A%2F%2Fexodus.desync.com%3A6969"],"infoHash":"3401712cedee69c8086028f860e07341175b3103","infoHashBuffer":{"type":"Buffer","data":[52,1,113,44,237,238,105,200,8,96,40,248,96,224,115,65,23,91,49,3]},"announce":[],"urlList":[]}}